<svg version="1.1" id="Capa_1" xmlns="http://www.w3.org/2000/svg" xmlns:xlink="http://www.w3.org/1999/xlink" x="0px" y="0px" viewBox="0 0 512 512" style="enable-background:new 0 0 512 512;" xml:space="preserve" width="300" height="300" xmlns:svgjs="http://svgjs.dev/svgjs"><g width="100%" height="100%" transform="matrix(1,0,0,1,0,0)"><circle style="" cx="256" cy="256" r="256" fill="#bee2e6" fill-opacity="1" data-original-color="#7ec359ff" stroke="none" stroke-opacity="1"/><path style="" d="M429.724,142.672H82.276c-14.964,0-27.096,12.132-27.096,27.096v262.544h401.644V169.768&#xA;&#9;C456.82,154.804,444.688,142.672,429.724,142.672z" fill="#656d7a" fill-opacity="1" data-original-color="#656d7aff" stroke="none" stroke-opacity="1"/><rect x="79" y="166.48" style="" width="354" height="242.04" fill="#4786c6" fill-opacity="1" data-original-color="#4786c6ff" stroke="none" stroke-opacity="1"/><polygon style="" points="502.856,455.808 9.144,455.808 55.18,432.3 456.82,432.3 " fill="#d2d2d4" fill-opacity="1" data-original-color="#d2d2d4ff" stroke="none" stroke-opacity="1"/><g>
	<rect id="SVGCleanerId_0" x="9.144" y="455.8" style="" width="493.72" height="20.904" fill="#656d7a" fill-opacity="1" data-original-color="#656d7aff" stroke="none" stroke-opacity="1"/>
</g><g>
	<rect id="SVGCleanerId_0_1_" x="9.144" y="455.8" style="" width="493.72" height="20.904" fill="#656d7a" fill-opacity="1" data-original-color="#656d7aff" stroke="none" stroke-opacity="1"/>
</g><g>
	<rect id="SVGCleanerId_0_2_" x="9.144" y="455.8" style="" width="493.72" height="20.904" fill="#656d7a" fill-opacity="1" data-original-color="#656d7aff" stroke="none" stroke-opacity="1"/>
</g><rect x="221.08" y="455.8" style="" width="69.816" height="20.904" fill="#4d535f" fill-opacity="1" data-original-color="#4d535fff" stroke="none" stroke-opacity="1"/><g>
	<path style="" d="M433,281.24v127.28H79V264.04c0,0,28.68-9.24,41,23.84c0,0,46.12-33.76,56.48,19.48&#xA;&#9;&#9;c0,0,26.64-5.2,31.8,27.92c0,0,13-2.6,15.6,11.68H305c0,0,11.04-35.72,41.56-9.08c0,0-3.24-35.08,27.24-20.12&#xA;&#9;&#9;c0,0,1.96-49.36,43.48-22.72C417.28,295.04,421.28,283.08,433,281.24z" fill="#d2d2d4" fill-opacity="1" data-original-color="#d2d2d4ff" stroke="none" stroke-opacity="1"/>
	<path style="" d="M294.852,280.06h-68.544c-24.872,77.116-97.384,84.636-97.384,84.636H392.24&#xA;&#9;&#9;C392.24,364.696,319.724,357.18,294.852,280.06z" fill="#d2d2d4" fill-opacity="1" data-original-color="#d2d2d4ff" stroke="none" stroke-opacity="1"/>
</g><g>
	<path style="" d="M433,408.52H79V290.48c0,0,28.68-9.28,41,23.84c0,0,46.12-33.76,56.48,19.48&#xA;&#9;&#9;c0,0,26.64-5.2,31.8,27.88c0,0,13-2.6,15.6,11.68H305c0,0,11.04-35.68,41.56-9.08c0,0-3.24-35.04,27.24-20.12&#xA;&#9;&#9;c0,0,1.96-49.32,43.48-22.72c0,0,4-11.92,15.72-13.76V408.52z" fill="#e8e7e8" fill-opacity="1" data-original-color="#e8e7e8ff" stroke="none" stroke-opacity="1"/>
	<path style="" d="M294.852,301.092h-68.544c-24.872,77.116-97.384,84.636-97.384,84.636H392.24&#xA;&#9;&#9;C392.24,385.724,319.724,378.208,294.852,301.092z" fill="#e8e7e8" fill-opacity="1" data-original-color="#e8e7e8ff" stroke="none" stroke-opacity="1"/>
</g><polygon style="" points="312.124,314.656 209.024,314.656 216.212,300.068 304.936,300.068 " fill="#656d7a" fill-opacity="1" data-original-color="#656d7aff" stroke="none" stroke-opacity="1"/><g>
	<path style="" d="M364.056,305.388c0,0-29.148-78.788-42.08-91.716l-49.632,49.636&#xA;&#9;&#9;C285.272,276.236,364.056,305.388,364.056,305.388z" fill="#f1592f" fill-opacity="1" data-original-color="#f1592fff" stroke="none" stroke-opacity="1"/>
	<path style="" d="M157.104,305.388c0,0,29.148-78.788,42.08-91.716l49.636,49.636&#xA;&#9;&#9;C235.892,276.236,157.104,305.388,157.104,305.388z" fill="#f1592f" fill-opacity="1" data-original-color="#f1592fff" stroke="none" stroke-opacity="1"/>
</g><path style="" d="M305.008,301.092h-88.836c-24.396-59.576-25.396-127.952-2.712-188.324&#xA;&#9;c10.524-28.136,26.244-54.58,47.108-77.476c20.864,22.9,36.58,49.34,47.156,77.476C330.36,173.04,329.424,241.432,305.008,301.092z" fill="#fdfeff" fill-opacity="1" data-original-color="#fdfeffff" stroke="none" stroke-opacity="1"/><path style="" d="M307.72,112.764c-13.24,10.576-29.52,16.788-47.156,16.788c-17.588,0-33.868-6.212-47.108-16.788&#xA;&#9;c10.524-28.136,26.244-54.58,47.108-77.476C281.428,58.188,297.148,84.628,307.72,112.764z" fill="#f1592f" fill-opacity="1" data-original-color="#f1592fff" stroke="none" stroke-opacity="1"/><circle style="" cx="260.6" cy="190.136" r="37.032" fill="#656d7a" fill-opacity="1" data-original-color="#656d7aff" stroke="none" stroke-opacity="1"/><circle style="" cx="260.6" cy="190.136" r="23.564" fill="#e8e7e8" fill-opacity="1" data-original-color="#e8e7e8ff" stroke="none" stroke-opacity="1"/><ellipse style="" cx="260.6" cy="289.28" rx="3.76" ry="44.604" fill="#f1592f" fill-opacity="1" data-original-color="#f1592fff" stroke="none" stroke-opacity="1"/><g>
</g><g>
</g><g>
</g><g>
</g><g>
</g><g>
</g><g>
</g><g>
</g><g>
</g><g>
</g><g>
</g><g>
</g><g>
</g><g>
</g><g>
</g></g></svg>